<?xml version="1.0" encoding="utf-8"?>
<!-- Generator: Adobe Illustrator 24.3.0, SVG Export Plug-In . SVG Version: 6.00 Build 0)  -->
<svg version="1.1" id="Layer_1" xmlns="http://www.w3.org/2000/svg" xmlns:xlink="http://www.w3.org/1999/xlink" x="0px" y="0px"
	 viewBox="0 0 120.3 80.3" style="enable-background:new 0 0 120.3 80.3;" xml:space="preserve">
<style type="text/css">
	.st0{fill:none;stroke:#FBFBFF;stroke-width:1.2043;stroke-miterlimit:10;}
	.st6{fill:#FBFBFF;}
	.st7{fill:none;stroke:#FBFBFF;stroke-width:0.7876;stroke-miterlimit:10;}
</style>
<g>
	<circle class="st0" cx="63.7" cy="38.2" r="33.1"/>
	<g>
		<path class="st6" d="M66.2,16.6v-3.1h-5.2v3.2c0.9-0.1,1.8-0.2,2.8-0.2C64.5,16.4,65.3,16.5,66.2,16.6z"/>
		<path class="st6" d="M60.9,59.9V63h5.2v-3.1C65.3,60,64.5,60,63.7,60C62.7,60,61.8,60,60.9,59.9z"/>
		<path class="st6" d="M42,35.6h-3.3v5.2H42c-0.1-0.9-0.2-1.7-0.2-2.6C41.9,37.3,41.9,36.5,42,35.6z"/>
		<path class="st6" d="M85.3,40.9h3v-5.2h-3c0.1,0.9,0.2,1.7,0.2,2.6C85.5,39.1,85.4,40,85.3,40.9z"/>
		<path class="st6" d="M50.2,21.1l-2.3-2.3l-3.7,3.7l2.3,2.3C47.5,23.5,48.8,22.2,50.2,21.1z"/>
		<path class="st6" d="M77,55.5l2.2,2.2l3.7-3.7l-2.1-2.1C79.7,53.1,78.4,54.4,77,55.5z"/>
		<path class="st6" d="M80.8,24.7l2.1-2.1l-3.7-3.7L77,21C78.4,22.1,79.7,23.3,80.8,24.7z"/>
		<path class="st6" d="M46.5,51.6l-2.3,2.3l3.7,3.7l2.3-2.3C48.8,54.2,47.5,53,46.5,51.6z"/>
	</g>
	<circle class="st7" cx="63.7" cy="38.2" r="21.7"/>
	<g>
		<path class="st6" d="M67.6,4.8V0h-8.1v4.9c1.4-0.2,2.8-0.3,4.3-0.3C65.1,4.6,66.3,4.7,67.6,4.8z"/>
		<path class="st6" d="M59.5,71.6v4.9h8.1v-4.8c-1.3,0.1-2.5,0.2-3.8,0.2C62.3,71.9,60.9,71.8,59.5,71.6z"/>
		<path class="st6" d="M30.4,34.2h-5.1v8.1h5.1c-0.2-1.3-0.3-2.7-0.3-4C30.1,36.9,30.2,35.5,30.4,34.2z"/>
		<path class="st6" d="M97.2,42.3h4.6v-8.1h-4.6c0.2,1.3,0.3,2.7,0.3,4C97.4,39.6,97.3,40.9,97.2,42.3z"/>
		<path class="st6" d="M42.9,11.9l-3.5-3.5l-5.7,5.7l3.6,3.6C38.9,15.5,40.8,13.5,42.9,11.9z"/>
		<path class="st6" d="M84.4,64.8l3.3,3.3l5.7-5.7l-3.3-3.3C88.5,61.2,86.5,63.1,84.4,64.8z"/>
		<path class="st6" d="M90.1,17.4l3.3-3.3l-5.7-5.7l-3.3,3.3C86.5,13.3,88.5,15.2,90.1,17.4z"/>
		<path class="st6" d="M37.2,58.8l-3.6,3.6l5.7,5.7l3.5-3.5C40.8,62.9,38.9,61,37.2,58.8z"/>
	</g>
</g>
</svg>
